<svg xmlns="http://www.w3.org/2000/svg" version="1.1" xmlns:xlink="http://www.w3.org/1999/xlink" xmlns:svgjs="http://svgjs.dev/svgjs" width="1000" height="820" viewBox="0 0 1000 820"><g transform="matrix(1,0,0,1,-0.07103523058862038,0.33213531789328954)"><svg viewBox="0 0 301 247" data-background-color="#8abcd7" preserveAspectRatio="xMidYMid meet" height="820" width="1000" xmlns="http://www.w3.org/2000/svg" xmlns:xlink="http://www.w3.org/1999/xlink"><g id="tight-bounds" transform="matrix(1,0,0,1,0.021577338007546132,-0.09995436156143)"><svg viewBox="0 0 300.95698018440964 247.2" height="247.2" width="300.95698018440964"><g><svg viewBox="0 0 395.52 324.8721592703729" height="247.2" width="300.95698018440964"><g><svg viewBox="0 0 395.52 324.8721592703729" height="324.8721592703729" width="395.52"><g><svg viewBox="0 0 395.52 324.8721592703729" height="324.8721592703729" width="395.52"><g><svg viewBox="0 0 395.52 211.98155738105262" height="211.98155738105262" width="395.52"><path d="M394.594 45.466C392.735 23.462 387.435 17.345 387.435 17.345 371.165-5.318 350.86-0.434 332.619 2.823 300.414 2.955 268.339 7.796 236.208 10.392 168.767 10.788 100.749 4.275 33.643 20.338 27.339 25.267-6.54 21.306 1.121 48.282 3.129 59.504 10.456 71.958 10.232 82.256 11.236 84.06 12.631 79.924 13.226 82.52 15.309 89.517 18.711 86.217 21.501 90.353 17.614 101.399 20.403 110.597 23.062 120.234 18.377 122.743 12.371 121.554 9.675 129.872 9.396 135.901 7.89 134.757 6.235 134.493 5.026 134.317 2.59 134.977 2.999 136.869 4.394 143.338-1.594 147.079 2.162 153.416-0.422 160.281 3.948 166.222 3.353 173.659 3.278 175.155 3.687 176.431 4.338 176.784 7.22 178.676 3.018 182.372 3.464 186.377 33.029 213.75 65.104 194.827 95.394 207.413 103.259 198.611 97.346 210.537 100.489 208.689 102.943 206.532 104.728 215.466 107.499 210.405 107.927 208.953 107.276 205.52 108.8 206.18 109.6 206.532 110.307 206.444 110.418 204.42 110.586 201.384 109.117 203.276 108.726 201.692 112.947 193.682 111.906 212.737 115.866 211.945 115.68 209.613 114.528 206.268 116.889 206.708 119.232 203.364 119.306 200.591 121.389 208.117 121.463 209.745 121.835 210.889 122.43 211.681 128.938 203.496 135.409 214.586 142.233 210.889 146.417 206.84 150.433 213.089 154.672 211.549 156.16 210.317 157.666 208.117 159.098 211.813 176.632 212.605 195.319 209.305 211.943 211.945 256.364 207.017 303.836 213.97 350.674 207.457 361.719 204.948 373.192 201.384 383.958 198.523 383.958 198.523 392.679 190.69 392.679 155.484S394.538 124.679 394.817 96.646C395.096 68.614 396.398 67.47 394.538 45.466Z" opacity="1" fill="#ffffff" data-fill-palette-color="tertiary"></path><g transform="matrix(1,0,0,1,55.76832,26.068561146666667)"><svg width="283.98335999999995" viewBox="3.0999999999999996 -38.05 68.4 38.5" height="159.8444350877193" data-palette-color="#8abcd7"><path d="M6.2-31.85Q4.9-31.85 4-32.75 3.1-33.65 3.1-34.95L3.1-34.95Q3.1-36.25 4-37.15 4.9-38.05 6.2-38.05L6.2-38.05Q7.45-38.05 8.33-37.15 9.2-36.25 9.2-34.95L9.2-34.95Q9.2-33.65 8.33-32.75 7.45-31.85 6.2-31.85L6.2-31.85ZM3.85-27.4L8.4-27.4 8.4 0 3.85 0 3.85-27.4ZM14.45-13.75Q14.45-18 16.15-21.18 17.85-24.35 20.87-26.1 23.9-27.85 27.8-27.85L27.8-27.85Q32.85-27.85 36.12-25.4 39.4-22.95 40.45-18.6L40.45-18.6 35.55-18.6Q34.85-21.1 32.82-22.55 30.8-24 27.8-24L27.8-24Q23.9-24 21.5-21.33 19.1-18.65 19.1-13.75L19.1-13.75Q19.1-8.8 21.5-6.1 23.9-3.4 27.8-3.4L27.8-3.4Q30.8-3.4 32.8-4.8 34.8-6.2 35.55-8.8L35.55-8.8 40.45-8.8Q39.35-4.6 36.05-2.08 32.75 0.45 27.8 0.45L27.8 0.45Q23.9 0.45 20.87-1.3 17.85-3.05 16.15-6.25 14.45-9.45 14.45-13.75L14.45-13.75ZM71.5-14.75Q71.5-13.45 71.34-12L71.34-12 49.45-12Q49.7-7.95 52.22-5.68 54.75-3.4 58.35-3.4L58.35-3.4Q61.3-3.4 63.27-4.78 65.25-6.15 66.05-8.45L66.05-8.45 70.95-8.45Q69.84-4.5 66.55-2.02 63.25 0.45 58.35 0.45L58.35 0.45Q54.45 0.45 51.37-1.3 48.3-3.05 46.55-6.28 44.8-9.5 44.8-13.75L44.8-13.75Q44.8-18 46.5-21.2 48.2-24.4 51.27-26.13 54.35-27.85 58.35-27.85L58.35-27.85Q62.25-27.85 65.25-26.15 68.25-24.45 69.87-21.48 71.5-18.5 71.5-14.75L71.5-14.75ZM66.8-15.7Q66.8-18.3 65.65-20.18 64.5-22.05 62.52-23.03 60.55-24 58.15-24L58.15-24Q54.7-24 52.27-21.8 49.85-19.6 49.5-15.7L49.5-15.7 66.8-15.7Z" opacity="1" transform="matrix(1,0,0,1,0,0)" fill="#8abcd7" class="undefined-text-0" data-fill-palette-color="quaternary" id="text-0"></path></svg></g></svg></g><g transform="matrix(1,0,0,1,75.54432,249.71699223882104)"><svg viewBox="0 0 244.43135999999998 75.15516703155183" height="75.15516703155183" width="244.43135999999998"><g transform="matrix(1,0,0,1,0,0)"><svg width="244.43135999999998" viewBox="3.85 -34.85 155.29 47.75" height="75.15516703155183" data-palette-color="#7fdbff"><path d="M14.7-34.85Q20.4-34.85 24.58-32.73 28.75-30.6 30.98-26.65 33.2-22.7 33.2-17.35L33.2-17.35Q33.2-12 30.98-8.08 28.75-4.15 24.58-2.08 20.4 0 14.7 0L14.7 0 3.85 0 3.85-34.85 14.7-34.85ZM14.7-3.75Q21.45-3.75 25-7.33 28.55-10.9 28.55-17.35L28.55-17.35Q28.55-23.85 24.98-27.5 21.4-31.15 14.7-31.15L14.7-31.15 8.4-31.15 8.4-3.75 14.7-3.75ZM58.95-27.4L63.5-27.4 63.5 0 58.95 0 58.95-4.05Q57.65-1.95 55.32-0.78 53 0.4 50.2 0.4L50.2 0.4Q47 0.4 44.45-0.93 41.9-2.25 40.42-4.9 38.95-7.55 38.95-11.35L38.95-11.35 38.95-27.4 43.45-27.4 43.45-11.95Q43.45-7.9 45.5-5.73 47.55-3.55 51.1-3.55L51.1-3.55Q54.75-3.55 56.85-5.8 58.95-8.05 58.95-12.35L58.95-12.35 58.95-27.4ZM90.09-27.4L94.8-27.4 78.3 12.9 73.59 12.9 79-0.3 67.94-27.4 73-27.4 81.59-5.2 90.09-27.4ZM97.64-13.8Q97.64-18 99.34-21.18 101.04-24.35 104.02-26.1 106.99-27.85 110.64-27.85L110.64-27.85Q114.24-27.85 116.89-26.3 119.54-24.75 120.84-22.4L120.84-22.4 120.84-27.4 125.44-27.4 125.44 0 120.84 0 120.84-5.1Q119.49-2.7 116.82-1.13 114.14 0.45 110.59 0.45L110.59 0.45Q106.94 0.45 103.99-1.35 101.04-3.15 99.34-6.4 97.64-9.65 97.64-13.8L97.64-13.8ZM120.84-13.75Q120.84-16.85 119.59-19.15 118.34-21.45 116.22-22.68 114.09-23.9 111.54-23.9L111.54-23.9Q108.99-23.9 106.89-22.7 104.79-21.5 103.54-19.2 102.29-16.9 102.29-13.8L102.29-13.8Q102.29-10.65 103.54-8.33 104.79-6 106.89-4.78 108.99-3.55 111.54-3.55L111.54-3.55Q114.09-3.55 116.22-4.78 118.34-6 119.59-8.33 120.84-10.65 120.84-13.75L120.84-13.75ZM145.09 0.45Q141.24 0.45 138.12-1.3 134.99-3.05 133.22-6.28 131.44-9.5 131.44-13.75L131.44-13.75Q131.44-17.95 133.27-21.18 135.09-24.4 138.24-26.13 141.39-27.85 145.29-27.85L145.29-27.85Q149.19-27.85 152.34-26.13 155.49-24.4 157.32-21.2 159.14-18 159.14-13.75L159.14-13.75Q159.14-9.5 157.27-6.28 155.39-3.05 152.19-1.3 148.99 0.45 145.09 0.45L145.09 0.45ZM145.09-3.55Q147.54-3.55 149.69-4.7 151.84-5.85 153.17-8.15 154.49-10.45 154.49-13.75L154.49-13.75Q154.49-17.05 153.19-19.35 151.89-21.65 149.79-22.78 147.69-23.9 145.24-23.9L145.24-23.9Q142.74-23.9 140.67-22.78 138.59-21.65 137.34-19.35 136.09-17.05 136.09-13.75L136.09-13.75Q136.09-10.4 137.32-8.1 138.54-5.8 140.59-4.67 142.64-3.55 145.09-3.55L145.09-3.55Z" opacity="1" transform="matrix(1,0,0,1,0,0)" fill="#7fdbff" class="undefined-text-1" data-fill-palette-color="secondary" id="text-1"></path></svg></g></svg></g></svg></g></svg></g><g></g></svg></g><defs></defs></svg><rect width="300.95698018440964" height="247.2" fill="none" stroke="none" visibility="hidden"></rect></g></svg></g></svg>